<svg width="37" height="38" viewBox="0 0 37 38" fill="none" xmlns="http://www.w3.org/2000/svg">
<path d="M34.7774 33.0316C34.8214 33.3978 34.7818 33.7684 34.6618 34.1194C34.5417 34.4702 34.3439 34.7933 34.0809 35.0673C33.8174 35.3408 33.4948 35.5593 33.1349 35.7075C32.7747 35.856 32.385 35.9315 31.9916 35.9286H4.8031C4.40968 35.9315 4.02009 35.856 3.65998 35.7075C3.29987 35.5593 2.9774 35.3408 2.71382 35.0673C2.45093 34.7933 2.25298 34.4702 2.13294 34.1194C2.0129 33.7684 1.97351 33.3978 2.01739 33.0316L4.46882 12.4396H32.3259L34.7774 33.0316Z" stroke="white" stroke-width="3" stroke-linecap="round" stroke-linejoin="round"/>
<path d="M11.4331 12.4396V8.52473C11.4331 6.79426 12.1668 5.13466 13.4729 3.91104C14.7789 2.68742 16.5503 2 18.3974 2C20.2444 2 22.0158 2.68742 23.3219 3.91104C24.6279 5.13466 25.3616 6.79426 25.3616 8.52473V12.4396" stroke="white" stroke-width="3" stroke-linecap="round" stroke-linejoin="round"/>
</svg>
