<svg width="18" height="21" viewBox="0 0 18 21" fill="none" xmlns="http://www.w3.org/2000/svg">
<path d="M16.9915 18.092C17.013 18.2936 16.9937 18.4978 16.9351 18.6911C16.8765 18.8843 16.78 19.0623 16.6517 19.2132C16.5231 19.3639 16.3658 19.4842 16.1902 19.5658C16.0144 19.6476 15.8243 19.6892 15.6324 19.6876H2.36758C2.17564 19.6892 1.98557 19.6476 1.80988 19.5658C1.63419 19.4842 1.47686 19.3639 1.34826 19.2132C1.22 19.0623 1.12342 18.8843 1.06486 18.6911C1.00629 18.4978 0.987077 18.2936 1.00848 18.092L2.20449 6.75H15.7955L16.9915 18.092Z" stroke="black" stroke-linecap="round" stroke-linejoin="round"/>
<path d="M5.60229 6.75004V4.59378C5.60229 3.64065 5.96027 2.72655 6.59747 2.05259C7.23467 1.37863 8.09891 1 9.00005 1C9.90118 1 10.7654 1.37863 11.4026 2.05259C12.0398 2.72655 12.3978 3.64065 12.3978 4.59378V6.75004" stroke="black" stroke-linecap="round" stroke-linejoin="round"/>
</svg>
