<svg width="19" height="23" viewBox="0 0 19 23" fill="none" xmlns="http://www.w3.org/2000/svg">
<path d="M12.0893 1H7.16071C6.25339 1 5.51785 1.73553 5.51785 2.64286V3.46429C5.51785 4.3716 6.25339 5.10714 7.16071 5.10714H12.0893C12.9966 5.10714 13.7321 4.3716 13.7321 3.46429V2.64286C13.7321 1.73553 12.9966 1 12.0893 1Z" stroke="white" stroke-linecap="round" stroke-linejoin="round"/>
<path d="M14.1429 2.64282H16.6071C17.0428 2.64282 17.4608 2.81591 17.7688 3.124C18.0768 3.4321 18.25 3.84996 18.25 4.28568V20.7143C18.25 21.1499 18.0768 21.5679 17.7688 21.8759C17.4608 22.1839 17.0428 22.3571 16.6071 22.3571H2.64286C2.20714 22.3571 1.78928 22.1839 1.48118 21.8759C1.17309 21.5679 1 21.1499 1 20.7143V4.28568C1 3.84996 1.17309 3.4321 1.48118 3.124C1.78928 2.81591 2.20714 2.64282 2.64286 2.64282H5.10714" stroke="white" stroke-linecap="round" stroke-linejoin="round"/>
<path d="M6.33928 14.9643L8.80356 16.6072L13.7321 10.0358" stroke="white" stroke-linecap="round" stroke-linejoin="round"/>
</svg>
