<svg width="26" height="24" viewBox="0 0 26 24" fill="none" xmlns="http://www.w3.org/2000/svg">
<path d="M11.5705 21.9451C10.5718 22.5632 9.38308 22.8342 8.20193 22.7129C7.0208 22.5916 5.91841 22.0854 5.07806 21.2784L4.34597 20.5747C4.02125 20.2591 3.83913 19.8331 3.83913 19.3894C3.83913 18.9455 4.02125 18.5198 4.34597 18.2042L7.42846 15.2596C7.75341 14.9486 8.19328 14.774 8.65182 14.774C9.11036 14.774 9.55023 14.9486 9.87518 15.2596C10.2034 15.5718 10.6465 15.7468 11.1082 15.7468C11.5699 15.7468 12.0129 15.5718 12.3412 15.2596L17.2539 10.5373C17.5786 10.2218 17.7607 9.79586 17.7607 9.35203C17.7607 8.90822 17.5786 8.48232 17.2539 8.16681C16.9304 7.85447 16.7487 7.43164 16.7487 6.99085C16.7487 6.55007 16.9304 6.12724 17.2539 5.81488L20.2209 2.85182C20.549 2.5397 20.9921 2.36462 21.4539 2.36462C21.9155 2.36462 22.3586 2.5397 22.6869 2.85182L23.419 3.55555C24.2734 4.35195 24.818 5.40598 24.9619 6.54178C25.1057 7.67755 24.8398 8.82637 24.2088 9.79649C20.8493 14.5907 16.558 18.7159 11.5705 21.9451Z" stroke="white" stroke-linecap="round" stroke-linejoin="round"/>
<path d="M3.88974 10.2595H10.6327V3.77783" stroke="white" stroke-linecap="round" stroke-linejoin="round"/>
<path d="M10.6327 10.2596L1 1" stroke="white" stroke-linecap="round" stroke-linejoin="round"/>
</svg>
