<svg width="23" height="23" viewBox="0 0 23 23" fill="none" xmlns="http://www.w3.org/2000/svg">
<path d="M13.9643 0.821411H9.03574C8.12842 0.821411 7.39288 1.55694 7.39288 2.46427V3.2857C7.39288 4.19301 8.12842 4.92855 9.03574 4.92855H13.9643C14.8716 4.92855 15.6072 4.19301 15.6072 3.2857V2.46427C15.6072 1.55694 14.8716 0.821411 13.9643 0.821411Z" stroke="black" stroke-linecap="round" stroke-linejoin="round"/>
<path d="M16.0179 2.46423H18.4821C18.9178 2.46423 19.3358 2.63732 19.6438 2.94541C19.9518 3.25351 20.125 3.67137 20.125 4.10709V20.5357C20.125 20.9713 19.9518 21.3893 19.6438 21.6973C19.3358 22.0054 18.9178 22.1785 18.4821 22.1785H4.51786C4.08214 22.1785 3.66428 22.0054 3.35618 21.6973C3.04809 21.3893 2.875 20.9713 2.875 20.5357V4.10709C2.875 3.67137 3.04809 3.25351 3.35618 2.94541C3.66428 2.63732 4.08214 2.46423 4.51786 2.46423H6.98214" stroke="black" stroke-linecap="round" stroke-linejoin="round"/>
<path d="M8.21429 14.7857L10.6786 16.4286L15.6072 9.85718" stroke="black" stroke-linecap="round" stroke-linejoin="round"/>
</svg>
