<svg width="25" height="24" viewBox="0 0 25 24" fill="none" xmlns="http://www.w3.org/2000/svg">
<g clip-path="url(#clip0_112_19)">
<path d="M24.1071 11.8972C24.1089 11.6592 24.0589 11.4236 23.9605 11.2052C23.8621 10.9868 23.7175 10.7904 23.5357 10.6286L12.5 0.857178L1.46429 10.6286C1.28255 10.7904 1.13789 10.9868 1.03951 11.2052C0.941126 11.4236 0.891186 11.6592 0.892863 11.8972V21.4286C0.892863 21.8832 1.081 22.3193 1.41589 22.6408C1.75077 22.9622 2.20498 23.1429 2.67857 23.1429H22.3214C22.795 23.1429 23.2492 22.9622 23.5841 22.6408C23.9191 22.3193 24.1071 21.8832 24.1071 21.4286V11.8972Z" stroke="black" stroke-linecap="round" stroke-linejoin="round"/>
<path d="M12.5 23.1429V16.2858" stroke="black" stroke-linecap="round" stroke-linejoin="round"/>
</g>
<defs>
<clipPath id="clip0_112_19">
<rect width="25" height="24" fill="white"/>
</clipPath>
</defs>
</svg>
