<svg width="25" height="24" viewBox="0 0 25 24" fill="none" xmlns="http://www.w3.org/2000/svg">
<path d="M24.2143 12.04C24.2161 11.8021 24.1661 11.5664 24.0677 11.348C23.9693 11.1296 23.8246 10.9332 23.6429 10.7714L12.6072 1L1.57147 10.7714C1.38973 10.9332 1.24506 11.1296 1.14668 11.348C1.0483 11.5664 0.998364 11.8021 1.00004 12.04V21.5714C1.00004 22.0261 1.18818 22.4622 1.52306 22.7836C1.85795 23.105 2.31216 23.2857 2.78575 23.2857H22.4286C22.9021 23.2857 23.3564 23.105 23.6912 22.7836C24.0262 22.4622 24.2143 22.0261 24.2143 21.5714V12.04Z" stroke="white" stroke-linecap="round" stroke-linejoin="round"/>
<path d="M12.6071 23.2857V16.4286" stroke="white" stroke-linecap="round" stroke-linejoin="round"/>
</svg>
