<svg width="23" height="24" viewBox="0 0 23 24" fill="none" xmlns="http://www.w3.org/2000/svg">
<path d="M10.2492 21.9451C9.37536 22.5632 8.33521 22.8342 7.3017 22.7129C6.26821 22.5916 5.30362 22.0854 4.56832 21.2784L3.92774 20.5746C3.64361 20.2591 3.48425 19.8331 3.48425 19.3894C3.48425 18.9455 3.64361 18.5198 3.92774 18.2042L6.62491 15.2596C6.90924 14.9486 7.29413 14.774 7.69535 14.774C8.09658 14.774 8.48146 14.9486 8.76579 15.2596C9.05299 15.5718 9.44068 15.7468 9.84467 15.7468C10.2487 15.7468 10.6363 15.5718 10.9235 15.2596L15.2222 10.5373C15.5063 10.2218 15.6657 9.79586 15.6657 9.35203C15.6657 8.90822 15.5063 8.48232 15.2222 8.16681C14.9391 7.85446 14.7801 7.43164 14.7801 6.99084C14.7801 6.55007 14.9391 6.12724 15.2222 5.81488L17.8183 2.85182C18.1054 2.5397 18.4931 2.36462 18.8971 2.36462C19.301 2.36462 19.6888 2.5397 19.976 2.85182L20.6166 3.55555C21.3642 4.35195 21.8408 5.40598 21.9667 6.54177C22.0925 7.67755 21.8598 8.82637 21.3077 9.79649C18.3682 14.5907 14.6132 18.7159 10.2492 21.9451Z" stroke="black" stroke-linecap="round" stroke-linejoin="round"/>
<path d="M3.5285 10.2595H9.42858V3.77783" stroke="black" stroke-linecap="round" stroke-linejoin="round"/>
<path d="M9.42862 10.2596L1 1" stroke="black" stroke-linecap="round" stroke-linejoin="round"/>
</svg>
