<svg width="26" height="25" viewBox="0 0 26 25" fill="none" xmlns="http://www.w3.org/2000/svg">
<path d="M13 24.1523C19.6275 24.1523 25 18.9695 25 12.5761C25 6.18281 19.6275 1 13 1C6.37258 1 1 6.18281 1 12.5761C1 18.9695 6.37258 24.1523 13 24.1523Z" stroke="black" stroke-linecap="round" stroke-linejoin="round"/>
<path d="M10.2308 17.9189H15.7693" stroke="black" stroke-linecap="round" stroke-linejoin="round"/>
<path d="M13 17.919V11.6857H11.1539" stroke="black" stroke-linecap="round" stroke-linejoin="round"/>
<path d="M13 7.67769C12.7451 7.67769 12.5385 7.47851 12.5385 7.23283C12.5385 6.98714 12.7451 6.78796 13 6.78796" stroke="black" stroke-linecap="round" stroke-linejoin="round"/>
<path d="M12.9998 7.67769C13.2547 7.67769 13.4614 7.47851 13.4614 7.23283C13.4614 6.98714 13.2547 6.78796 12.9998 6.78796" stroke="black" stroke-linecap="round" stroke-linejoin="round"/>
</svg>
