<svg width="46" height="46" viewBox="0 0 46 46" fill="none" xmlns="http://www.w3.org/2000/svg">
<g clip-path="url(#clip0_112_14)">
<path d="M21.3901 42.9439C19.6868 44.0407 17.6594 44.5214 15.645 44.3062C13.6306 44.091 11.7505 43.193 10.3173 41.7611L9.06871 40.5125C8.51493 39.9526 8.2043 39.1972 8.2043 38.4097C8.2043 37.6224 8.51493 36.8667 9.06871 36.3068L14.3258 31.0825C14.8801 30.5308 15.6302 30.221 16.4123 30.221C17.1943 30.221 17.9445 30.5308 18.4987 31.0825C19.0585 31.6364 19.8141 31.947 20.6016 31.947C21.389 31.947 22.1446 31.6364 22.7044 31.0825L31.083 22.704C31.6368 22.1442 31.9474 21.3885 31.9474 20.6011C31.9474 19.8137 31.6368 19.058 31.083 18.4983C30.5312 17.9441 30.2214 17.1939 30.2214 16.4118C30.2214 15.6298 30.5312 14.8796 31.083 14.3254L36.1429 9.06826C36.7027 8.51446 37.4585 8.20386 38.2457 8.20386C39.0333 8.20386 39.789 8.51446 40.3486 9.06826L41.5971 10.3168C43.0547 11.7298 43.9836 13.5999 44.2287 15.615C44.4741 17.6302 44.0207 19.6685 42.9443 21.3897C37.215 29.8957 29.8961 37.2146 21.3901 42.9439Z" stroke="#91230D" stroke-width="3" stroke-linecap="round" stroke-linejoin="round"/>
<path d="M23 1.64282C20.1953 1.64282 17.4181 2.19524 14.827 3.26854C12.2358 4.34184 9.88142 5.91501 7.89823 7.8982C5.915 9.88139 4.34187 12.2358 3.26857 14.8269C2.19527 17.4181 1.64285 20.1953 1.64285 23" stroke="#91230D" stroke-width="3" stroke-linecap="round" stroke-linejoin="round"/>
<path d="M23 9.85706C19.5143 9.85706 16.1714 11.2418 13.7066 13.7065C11.2418 16.1713 9.85713 19.5142 9.85713 22.9999" stroke="#91230D" stroke-width="3" stroke-linecap="round" stroke-linejoin="round"/>
</g>
<defs>
<clipPath id="clip0_112_14">
<rect width="46" height="46" fill="white"/>
</clipPath>
</defs>
</svg>
