<svg width="22" height="21" viewBox="0 0 22 21" fill="none" xmlns="http://www.w3.org/2000/svg">
<path d="M2.57144 13V19.75C2.57144 19.9489 2.65422 20.1397 2.80158 20.2804C2.94891 20.4209 3.14877 20.5 3.35716 20.5H19.0714C19.2798 20.5 19.4797 20.4209 19.6271 20.2804C19.7743 20.1397 19.8572 19.9489 19.8572 19.75V13" stroke="white" stroke-linecap="round" stroke-linejoin="round"/>
<path d="M12.7857 13V20.5" stroke="white" stroke-linecap="round" stroke-linejoin="round"/>
<path d="M2.57144 15.25H12.7857" stroke="white" stroke-linecap="round" stroke-linejoin="round"/>
<path d="M1 6.25L3.35714 1H19.0714L21.4286 6.25H1Z" stroke="white" stroke-linecap="round" stroke-linejoin="round"/>
<path d="M7.72571 6.25V7.75C7.72571 8.54565 7.3946 9.30871 6.80519 9.87131C6.21579 10.4339 5.41639 10.75 4.58286 10.75H4.14286C3.30932 10.75 2.50992 10.4339 1.92053 9.87131C1.33112 9.30871 1 8.54565 1 7.75V6.25" stroke="white" stroke-linecap="round" stroke-linejoin="round"/>
<path d="M14.75 6.25V7.75C14.75 8.54565 14.4189 9.30871 13.8295 9.87131C13.2401 10.4339 12.4407 10.75 11.6071 10.75H10.8214C9.98788 10.75 9.18848 10.4339 8.59909 9.87131C8.00967 9.30871 7.67856 8.54565 7.67856 7.75V6.25" stroke="white" stroke-linecap="round" stroke-linejoin="round"/>
<path d="M21.4286 6.25V7.75C21.4286 8.54565 21.0975 9.30871 20.508 9.87131C19.9186 10.4339 19.1192 10.75 18.2857 10.75H17.8929C17.0594 10.75 16.26 10.4339 15.6705 9.87131C15.0811 9.30871 14.75 8.54565 14.75 7.75V6.25" stroke="white" stroke-linecap="round" stroke-linejoin="round"/>
</svg>
