<svg width="22" height="21" viewBox="0 0 22 21" fill="none" xmlns="http://www.w3.org/2000/svg">
<g clip-path="url(#clip0_112_28)">
<path d="M2.35718 12.75V19.5C2.35718 19.6989 2.43996 19.8897 2.58731 20.0304C2.73465 20.1709 2.9345 20.25 3.14289 20.25H18.8572C19.0656 20.25 19.2654 20.1709 19.4128 20.0304C19.5601 19.8897 19.6429 19.6989 19.6429 19.5V12.75" stroke="black" stroke-linecap="round" stroke-linejoin="round"/>
<path d="M12.5715 12.75V20.25" stroke="black" stroke-linecap="round" stroke-linejoin="round"/>
<path d="M2.35718 15H12.5715" stroke="black" stroke-linecap="round" stroke-linejoin="round"/>
<path d="M0.785767 6L3.14291 0.75H18.8572L21.2143 6H0.785767Z" stroke="black" stroke-linecap="round" stroke-linejoin="round"/>
<path d="M7.51148 6V7.5C7.51148 8.29565 7.18037 9.05871 6.59095 9.62131C6.00156 10.1839 5.20216 10.5 4.36862 10.5H3.92862C3.09509 10.5 2.29569 10.1839 1.70629 9.62131C1.11689 9.05871 0.785767 8.29565 0.785767 7.5V6" stroke="black" stroke-linecap="round" stroke-linejoin="round"/>
<path d="M14.5358 6V7.5C14.5358 8.29565 14.2047 9.05871 13.6153 9.62131C13.0259 10.1839 12.2265 10.5 11.3929 10.5H10.6072C9.77368 10.5 8.97428 10.1839 8.38488 9.62131C7.79547 9.05871 7.46436 8.29565 7.46436 7.5V6" stroke="black" stroke-linecap="round" stroke-linejoin="round"/>
<path d="M21.2143 6V7.5C21.2143 8.29565 20.8832 9.05871 20.2938 9.62131C19.7044 10.1839 18.905 10.5 18.0715 10.5H17.6786C16.8451 10.5 16.0458 10.1839 15.4563 9.62131C14.8669 9.05871 14.5358 8.29565 14.5358 7.5V6" stroke="black" stroke-linecap="round" stroke-linejoin="round"/>
</g>
<defs>
<clipPath id="clip0_112_28">
<rect width="22" height="21" fill="white"/>
</clipPath>
</defs>
</svg>
