<svg width="23" height="23" viewBox="0 0 23 23" fill="none" xmlns="http://www.w3.org/2000/svg">
<path d="M11.6786 13.3215C13.9469 13.3215 15.7857 11.4826 15.7857 9.21432C15.7857 6.94601 13.9469 5.10718 11.6786 5.10718C9.41024 5.10718 7.57141 6.94601 7.57141 9.21432C7.57141 11.4826 9.41024 13.3215 11.6786 13.3215Z" stroke="black" stroke-linecap="round" stroke-linejoin="round"/>
<path d="M4.66357 19.7286C5.39668 18.5252 6.42703 17.5306 7.65556 16.8406C8.88409 16.1504 10.2695 15.788 11.6786 15.788C13.0877 15.788 14.4731 16.1504 15.7016 16.8406C16.9302 17.5306 17.9604 18.5252 18.6936 19.7286" stroke="black" stroke-linecap="round" stroke-linejoin="round"/>
<path d="M11.6786 22.3571C17.5763 22.3571 22.3571 17.5763 22.3571 11.6786C22.3571 5.78096 17.5763 1 11.6786 1C5.78096 1 1 5.78096 1 11.6786C1 17.5763 5.78096 22.3571 11.6786 22.3571Z" stroke="black" stroke-linecap="round" stroke-linejoin="round"/>
</svg>
