<svg width="39" height="39" viewBox="0 0 39 39" fill="none" xmlns="http://www.w3.org/2000/svg">
<path d="M19.4286 22.1924C15.7113 22.1924 12.6978 19.1789 12.6978 15.4616C12.6978 11.7443 15.7113 8.73083 19.4286 8.73083C23.1459 8.73083 26.1593 11.7443 26.1593 15.4616C26.1593 19.1789 23.1459 22.1924 19.4286 22.1924Z" stroke="white" stroke-width="3" stroke-linecap="round" stroke-linejoin="round"/>
<path d="M30.9248 32.6923C29.7234 30.7202 28.0348 29.0903 26.0215 27.9595C24.0082 26.8284 21.7378 26.2344 19.4286 26.2344C17.1194 26.2344 14.849 26.8284 12.8357 27.9595C10.8223 29.0903 9.13399 30.7202 7.93241 32.6923" stroke="white" stroke-width="3" stroke-linecap="round" stroke-linejoin="round"/>
<path d="M19.4286 37C9.76346 37 1.92857 29.1651 1.92857 19.5C1.92857 9.83502 9.76346 2 19.4286 2C29.0936 2 36.9286 9.83502 36.9286 19.5C36.9286 29.1651 29.0936 37 19.4286 37Z" stroke="white" stroke-width="3" stroke-linecap="round" stroke-linejoin="round"/>
</svg>
